<?xml version="1.0" encoding="UTF-8" standalone="no"?>
<svg xmlns="http://www.w3.org/2000/svg" viewBox="0 0 200 150" width="200" height="150">
  <!-- Cloud -->
  <path d="M40,75 C40,55 60,50 80,50 C90,40 110,40 120,50 C150,50 160,70 150,85 C160,95 150,110 135,110 L45,110 C25,110 20,90 40,75 Z" fill="#aaaaaa" stroke="#888888" stroke-width="2" />
  
  <!-- Sun -->
  <circle cx="120" cy="60" r="25" fill="#ffcc00" />
  
  <!-- Sun rays -->
  <line x1="120" y1="25" x2="120" y2="15" stroke="#ffcc00" stroke-width="4" />
  <line x1="120" y1="95" x2="120" y2="105" stroke="#ffcc00" stroke-width="4" />
  <line x1="85" y1="60" x2="75" y2="60" stroke="#ffcc00" stroke-width="4" />
  <line x1="155" y1="60" x2="165" y2="60" stroke="#ffcc00" stroke-width="4" />
  <line x1="95" y1="35" x2="85" y2="25" stroke="#ffcc00" stroke-width="4" />
  <line x1="145" y1="85" x2="155" y2="95" stroke="#ffcc00" stroke-width="4" />
  <line x1="95" y1="85" x2="85" y2="95" stroke="#ffcc00" stroke-width="4" />
  <line x1="145" y1="35" x2="155" y2="25" stroke="#ffcc00" stroke-width="4" />
  
  <!-- Jersey Met text -->
  <text x="100" y="140" font-family="Arial, sans-serif" font-size="18" font-weight="bold" text-anchor="middle" fill="#b30000">Jersey Met</text>
</svg>
