<?xml version="1.0" encoding="UTF-8" standalone="no"?>
<svg xmlns="http://www.w3.org/2000/svg" viewBox="0 0 200 150" width="200" height="150">
  <!-- Cloud -->
  <path d="M40,70 C35,55 45,45 65,45 C70,30 100,30 110,45 C140,40 150,60 140,75 C150,85 140,95 120,95 L50,95 C30,95 25,80 40,70 Z" fill="#888888" />
  
  <!-- Sun -->
  <circle cx="120" cy="55" r="25" fill="#FFD700" />
  
  <!-- Sun rays -->
  <line x1="120" y1="20" x2="120" y2="10" stroke="#FFD700" stroke-width="4" />
  <line x1="120" y1="90" x2="120" y2="100" stroke="#FFD700" stroke-width="4" />
  <line x1="85" y1="55" x2="75" y2="55" stroke="#FFD700" stroke-width="4" />
  <line x1="155" y1="55" x2="165" y2="55" stroke="#FFD700" stroke-width="4" />
  <line x1="95" y1="30" x2="85" y2="20" stroke="#FFD700" stroke-width="4" />
  <line x1="145" y1="80" x2="155" y2="90" stroke="#FFD700" stroke-width="4" />
  <line x1="95" y1="80" x2="85" y2="90" stroke="#FFD700" stroke-width="4" />
  <line x1="145" y1="30" x2="155" y2="20" stroke="#FFD700" stroke-width="4" />
  
  <!-- Jersey Met text -->
  <text x="100" y="130" font-family="Arial, sans-serif" font-size="20" font-weight="bold" text-anchor="middle" fill="#B22222">Jersey Met</text>
</svg>
